# xmcd
#
# Track frame offsets: 
#        150
#        22140
#        45368
#        71280
#        94355
#        114106
#        144091
#        175191
#        197716
#        225387
#
# Disc length: 3253 seconds
#
# Revision: 1
# Processed by: cddbd v1.5.2PL0 Copyright (c) Steve Scherf et al.
# Submitted via: ExactAudioCopyFreeDBPlugin 1.0
#
DISCID=760cb30a
DTITLE=Юрий Наумов - Блюз в тысячу дней
DYEAR=1986
DGENRE=Blues
TTITLE0=Отдавшим сердце рок-н-роллу
TTITLE1=Когда не останется слов...
TTITLE2=Пессимистический блюз
TTITLE3=Кошка на раскалённой крыше (инструментал)
TTITLE4=Я собрался не туда
TTITLE5=Рожден, чтоб играть
TTITLE6=Сказка о Карле, короле Рок-н-Ролла
TTITLE7=И я пою
TTITLE8=Сказка о Карле, короле Рок-н-Ролла (live)
TTITLE9=И я пою (live)
EXTD=
EXTT0=
EXTT1=
EXTT2=
EXTT3=
EXTT4=
EXTT5=
EXTT6=
EXTT7=
EXTT8=
EXTT9=
PLAYORDER=
